<svg id="Layer_1" data-name="Layer 1" xmlns="http://www.w3.org/2000/svg" viewBox="0 0 111.82 25.97"><defs><style>.cls-1{fill:#d62e28;}</style></defs><path class="cls-1" d="M37.28,91.53a13.23,13.23,0,0,1-3.76-.46A7,7,0,0,1,31,89.78a4.87,4.87,0,0,1-1.42-2,7.09,7.09,0,0,1-.44-2.54V71.83a7.18,7.18,0,0,1,.44-2.55,4.91,4.91,0,0,1,1.42-2A7,7,0,0,1,33.52,66a13.23,13.23,0,0,1,3.76-.46H58.2V69.4H37.28c-2.16,0-3.24.79-3.24,2.39V85.3c0,1.6,1.08,2.39,3.24,2.39H58.2v3.84Z" transform="translate(-29.13 -65.56)"/><path class="cls-1" d="M93.65,91.53l-9-19.92L75.47,91.53H71.89l-12-26h4.73l9,19.92,9.11-19.92h3.65l9,19.92,9.11-19.92h4.76l-12,26Z" transform="translate(-29.13 -65.56)"/><path class="cls-1" d="M135.42,91.53,122,70.61,108.41,91.53H103l17.27-26h3.58l17.15,26Z" transform="translate(-29.13 -65.56)"/></svg>