<svg id="Layer_1" data-name="Layer 1" xmlns="http://www.w3.org/2000/svg" viewBox="0 0 87.2 11.39"><defs><style>.cls-1,.cls-2,.cls-3,.cls-5{fill:#d62e28;}.cls-2,.cls-3,.cls-5{isolation:isolate;font-size:9.25px;font-family:TitilliumWeb-Regular, Titillium Web;}.cls-3{letter-spacing:-0.01em;}.cls-4,.cls-5{letter-spacing:-0.01em;}</style></defs><path class="cls-1" d="M52.1,8.79a5,5,0,0,1-1.28-.14A2.46,2.46,0,0,1,50,8.21a1.6,1.6,0,0,1-.48-.67,2.51,2.51,0,0,1-.15-.86V2.12a2.55,2.55,0,0,1,.15-.86A1.6,1.6,0,0,1,50,.59a2.46,2.46,0,0,1,.85-.44A4.62,4.62,0,0,1,52.1,0h7.08V1.3H52.1c-.74,0-1.1.27-1.1.81V6.65c0,.54.36.81,1.1.81h7.08v1.3Z" transform="translate(0 0)"/><path class="cls-1" d="M71.19,8.79l-3-6.74L65.08,8.79H63.86L59.86,0h1.6l3.06,6.74,3-6.74H68.8l3,6.74L74.88,0h1.61L72.43,8.79Z" transform="translate(0 0)"/><path class="cls-1" d="M85.33,8.79,80.79,1.71,76.18,8.79H74.33L80.18,0h1.21L87.2,8.79Z" transform="translate(0 0)"/><text class="cls-2" transform="translate(0 8.75)">p</text><text class="cls-3" transform="translate(4.88 8.75)">o<tspan class="cls-4" x="4.75" y="0">w</tspan></text><text class="cls-2" transform="translate(16.72 8.75)">e</text><text class="cls-5" transform="translate(21.39 8.75)">r</text><text class="cls-2" transform="translate(24.5 8.75)">ed </text><text class="cls-5" transform="translate(36.1 8.75)">b</text><text class="cls-2" transform="translate(40.89 8.75)">y</text></svg>